<?xml version="1.0"?>
<!-- Generated by SVGo -->
<svg width="312" height="97"
     xmlns="http://www.w3.org/2000/svg" 
     xmlns:xlink="http://www.w3.org/1999/xlink">
<rect x="0" y="0" width="312" height="97" />
<path d="M -36 48C 3 18 3 78 42 48C 81 18 81 78 120 48C 159 18 159 78 198 48C 237 18 237 78 276 48C 315 18 315 78 354 48C 393 18 393 78 432 48L 432 145 L -36 145 z" style="fill:rgb(149,214,255)"/>
<path d="M -81 48C -42 18 -42 78 -3 48C 36 18 36 78 75 48C 114 18 114 78 153 48C 192 18 192 78 231 48C 270 18 270 78 309 48C 348 18 348 78 387 48L 387 145 L -81 145 z" style="fill:rgb(72,185,255)"/>
</svg>
