<?xml version="1.0"?>
<!-- Generated by SVGo -->
<svg width="312" height="97"
     xmlns="http://www.w3.org/2000/svg" 
     xmlns:xlink="http://www.w3.org/1999/xlink">
<rect x="0" y="0" width="312" height="97" />
<path d="M -48 48C -9 18 -9 78 30 48C 69 18 69 78 108 48C 147 18 147 78 186 48C 225 18 225 78 264 48C 303 18 303 78 342 48C 381 18 381 78 420 48L 420 145 L -48 145 z" style="fill:rgb(149,214,255)"/>
<path d="M -69 48C -30 18 -30 78 9 48C 48 18 48 78 87 48C 126 18 126 78 165 48C 204 18 204 78 243 48C 282 18 282 78 321 48C 360 18 360 78 399 48L 399 145 L -69 145 z" style="fill:rgb(72,185,255)"/>
</svg>
