<?xml version="1.0"?>
<!-- Generated by SVGo -->
<svg width="312" height="97"
     xmlns="http://www.w3.org/2000/svg" 
     xmlns:xlink="http://www.w3.org/1999/xlink">
<rect x="0" y="0" width="312" height="97" />
<path d="M 18 48C 57 18 57 78 96 48C 135 18 135 78 174 48C 213 18 213 78 252 48C 291 18 291 78 330 48C 369 18 369 78 408 48C 447 18 447 78 486 48L 486 145 L 18 145 z" style="fill:rgb(149,214,255)"/>
<path d="M -135 48C -96 18 -96 78 -57 48C -18 18 -18 78 21 48C 60 18 60 78 99 48C 138 18 138 78 177 48C 216 18 216 78 255 48C 294 18 294 78 333 48L 333 145 L -135 145 z" style="fill:rgb(72,185,255)"/>
</svg>
