<?xml version="1.0"?>
<!-- Generated by SVGo -->
<svg width="312" height="97"
     xmlns="http://www.w3.org/2000/svg" 
     xmlns:xlink="http://www.w3.org/1999/xlink">
<rect x="0" y="0" width="312" height="97" />
<path d="M -42 48C -3 18 -3 78 36 48C 75 18 75 78 114 48C 153 18 153 78 192 48C 231 18 231 78 270 48C 309 18 309 78 348 48C 387 18 387 78 426 48L 426 145 L -42 145 z" style="fill:rgb(149,214,255)"/>
<path d="M -75 48C -36 18 -36 78 3 48C 42 18 42 78 81 48C 120 18 120 78 159 48C 198 18 198 78 237 48C 276 18 276 78 315 48C 354 18 354 78 393 48L 393 145 L -75 145 z" style="fill:rgb(72,185,255)"/>
</svg>
