<?xml version="1.0"?>
<!-- Generated by SVGo -->
<svg width="312" height="97"
     xmlns="http://www.w3.org/2000/svg" 
     xmlns:xlink="http://www.w3.org/1999/xlink">
<rect x="0" y="0" width="312" height="97" />
<path d="M -54 48C -15 33 -15 63 24 48C 63 33 63 63 102 48C 141 33 141 63 180 48C 219 33 219 63 258 48C 297 33 297 63 336 48C 375 33 375 63 414 48L 414 145 L -54 145 z" style="fill:rgb(149,214,255)"/>
<path d="M -63 48C -24 33 -24 63 15 48C 54 33 54 63 93 48C 132 33 132 63 171 48C 210 33 210 63 249 48C 288 33 288 63 327 48C 366 33 366 63 405 48L 405 145 L -63 145 z" style="fill:rgb(72,185,255)"/>
</svg>
