<?xml version="1.0"?>
<!-- Generated by SVGo -->
<svg width="312" height="97"
     xmlns="http://www.w3.org/2000/svg" 
     xmlns:xlink="http://www.w3.org/1999/xlink">
<rect x="0" y="0" width="312" height="97" />
<path d="M -18 48C 21 18 21 78 60 48C 99 18 99 78 138 48C 177 18 177 78 216 48C 255 18 255 78 294 48C 333 18 333 78 372 48C 411 18 411 78 450 48L 450 145 L -18 145 z" style="fill:rgb(149,214,255)"/>
<path d="M -99 48C -60 18 -60 78 -21 48C 18 18 18 78 57 48C 96 18 96 78 135 48C 174 18 174 78 213 48C 252 18 252 78 291 48C 330 18 330 78 369 48L 369 145 L -99 145 z" style="fill:rgb(72,185,255)"/>
</svg>
