<?xml version="1.0"?>
<!-- Generated by SVGo -->
<svg width="312" height="97"
     xmlns="http://www.w3.org/2000/svg" 
     xmlns:xlink="http://www.w3.org/1999/xlink">
<rect x="0" y="0" width="312" height="97" />
<path d="M -70 48C -31 33 -31 63 8 48C 47 33 47 63 86 48C 125 33 125 63 164 48C 203 33 203 63 242 48C 281 33 281 63 320 48C 359 33 359 63 398 48L 398 145 L -70 145 z" style="fill:rgb(149,214,255)"/>
<path d="M -47 48C -8 33 -8 63 31 48C 70 33 70 63 109 48C 148 33 148 63 187 48C 226 33 226 63 265 48C 304 33 304 63 343 48C 382 33 382 63 421 48L 421 145 L -47 145 z" style="fill:rgb(72,185,255)"/>
</svg>
