<?xml version="1.0"?>
<!-- Generated by SVGo -->
<svg width="312" height="97"
     xmlns="http://www.w3.org/2000/svg" 
     xmlns:xlink="http://www.w3.org/1999/xlink">
<rect x="0" y="0" width="312" height="97" />
<path d="M 12 48C 51 18 51 78 90 48C 129 18 129 78 168 48C 207 18 207 78 246 48C 285 18 285 78 324 48C 363 18 363 78 402 48C 441 18 441 78 480 48L 480 145 L 12 145 z" style="fill:rgb(149,214,255)"/>
<path d="M -129 48C -90 18 -90 78 -51 48C -12 18 -12 78 27 48C 66 18 66 78 105 48C 144 18 144 78 183 48C 222 18 222 78 261 48C 300 18 300 78 339 48L 339 145 L -129 145 z" style="fill:rgb(72,185,255)"/>
</svg>
