<?xml version="1.0"?>
<!-- Generated by SVGo -->
<svg width="312" height="97"
     xmlns="http://www.w3.org/2000/svg" 
     xmlns:xlink="http://www.w3.org/1999/xlink">
<rect x="0" y="0" width="312" height="97" />
<path d="M 6 48C 45 18 45 78 84 48C 123 18 123 78 162 48C 201 18 201 78 240 48C 279 18 279 78 318 48C 357 18 357 78 396 48C 435 18 435 78 474 48L 474 145 L 6 145 z" style="fill:rgb(149,214,255)"/>
<path d="M -123 48C -84 18 -84 78 -45 48C -6 18 -6 78 33 48C 72 18 72 78 111 48C 150 18 150 78 189 48C 228 18 228 78 267 48C 306 18 306 78 345 48L 345 145 L -123 145 z" style="fill:rgb(72,185,255)"/>
</svg>
