<?xml version="1.0"?>
<!-- Generated by SVGo -->
<svg width="312" height="97"
     xmlns="http://www.w3.org/2000/svg" 
     xmlns:xlink="http://www.w3.org/1999/xlink">
<rect x="0" y="0" width="312" height="97" />
<path d="M -24 48C 15 18 15 78 54 48C 93 18 93 78 132 48C 171 18 171 78 210 48C 249 18 249 78 288 48C 327 18 327 78 366 48C 405 18 405 78 444 48L 444 145 L -24 145 z" style="fill:rgb(149,214,255)"/>
<path d="M -93 48C -54 18 -54 78 -15 48C 24 18 24 78 63 48C 102 18 102 78 141 48C 180 18 180 78 219 48C 258 18 258 78 297 48C 336 18 336 78 375 48L 375 145 L -93 145 z" style="fill:rgb(72,185,255)"/>
</svg>
