<?xml version="1.0"?>
<!-- Generated by SVGo -->
<svg width="312" height="97"
     xmlns="http://www.w3.org/2000/svg" 
     xmlns:xlink="http://www.w3.org/1999/xlink">
<rect x="0" y="0" width="312" height="97" />
<path d="M -38 48C 1 33 1 63 40 48C 79 33 79 63 118 48C 157 33 157 63 196 48C 235 33 235 63 274 48C 313 33 313 63 352 48C 391 33 391 63 430 48L 430 145 L -38 145 z" style="fill:rgb(149,214,255)"/>
<path d="M -79 48C -40 33 -40 63 -1 48C 38 33 38 63 77 48C 116 33 116 63 155 48C 194 33 194 63 233 48C 272 33 272 63 311 48C 350 33 350 63 389 48L 389 145 L -79 145 z" style="fill:rgb(72,185,255)"/>
</svg>
