<?xml version="1.0"?>
<!-- Generated by SVGo -->
<svg width="312" height="97"
     xmlns="http://www.w3.org/2000/svg" 
     xmlns:xlink="http://www.w3.org/1999/xlink">
<rect x="0" y="0" width="312" height="97" />
<path d="M -6 48C 33 18 33 78 72 48C 111 18 111 78 150 48C 189 18 189 78 228 48C 267 18 267 78 306 48C 345 18 345 78 384 48C 423 18 423 78 462 48L 462 145 L -6 145 z" style="fill:rgb(149,214,255)"/>
<path d="M -111 48C -72 18 -72 78 -33 48C 6 18 6 78 45 48C 84 18 84 78 123 48C 162 18 162 78 201 48C 240 18 240 78 279 48C 318 18 318 78 357 48L 357 145 L -111 145 z" style="fill:rgb(72,185,255)"/>
</svg>
