<?xml version="1.0"?>
<!-- Generated by SVGo -->
<svg width="312" height="97"
     xmlns="http://www.w3.org/2000/svg" 
     xmlns:xlink="http://www.w3.org/1999/xlink">
<rect x="0" y="0" width="312" height="97" />
<path d="M -6 48C 33 33 33 63 72 48C 111 33 111 63 150 48C 189 33 189 63 228 48C 267 33 267 63 306 48C 345 33 345 63 384 48C 423 33 423 63 462 48L 462 145 L -6 145 z" style="fill:rgb(149,214,255)"/>
<path d="M -111 48C -72 33 -72 63 -33 48C 6 33 6 63 45 48C 84 33 84 63 123 48C 162 33 162 63 201 48C 240 33 240 63 279 48C 318 33 318 63 357 48L 357 145 L -111 145 z" style="fill:rgb(72,185,255)"/>
</svg>
