<?xml version="1.0"?>
<!-- Generated by SVGo -->
<svg width="312" height="97"
     xmlns="http://www.w3.org/2000/svg" 
     xmlns:xlink="http://www.w3.org/1999/xlink">
<rect x="0" y="0" width="312" height="97" />
<path d="M -12 48C 27 18 27 78 66 48C 105 18 105 78 144 48C 183 18 183 78 222 48C 261 18 261 78 300 48C 339 18 339 78 378 48C 417 18 417 78 456 48L 456 145 L -12 145 z" style="fill:rgb(149,214,255)"/>
<path d="M -105 48C -66 18 -66 78 -27 48C 12 18 12 78 51 48C 90 18 90 78 129 48C 168 18 168 78 207 48C 246 18 246 78 285 48C 324 18 324 78 363 48L 363 145 L -105 145 z" style="fill:rgb(72,185,255)"/>
</svg>
