<?xml version="1.0"?>
<!-- Generated by SVGo -->
<svg width="312" height="97"
     xmlns="http://www.w3.org/2000/svg" 
     xmlns:xlink="http://www.w3.org/1999/xlink">
<rect x="0" y="0" width="312" height="97" />
<path d="M -14 48C 25 33 25 63 64 48C 103 33 103 63 142 48C 181 33 181 63 220 48C 259 33 259 63 298 48C 337 33 337 63 376 48C 415 33 415 63 454 48L 454 145 L -14 145 z" style="fill:rgb(149,214,255)"/>
<path d="M -103 48C -64 33 -64 63 -25 48C 14 33 14 63 53 48C 92 33 92 63 131 48C 170 33 170 63 209 48C 248 33 248 63 287 48C 326 33 326 63 365 48L 365 145 L -103 145 z" style="fill:rgb(72,185,255)"/>
</svg>
