<?xml version="1.0"?>
<!-- Generated by SVGo -->
<svg width="312" height="97"
     xmlns="http://www.w3.org/2000/svg" 
     xmlns:xlink="http://www.w3.org/1999/xlink">
<rect x="0" y="0" width="312" height="97" />
<path d="M -60 48C -21 18 -21 78 18 48C 57 18 57 78 96 48C 135 18 135 78 174 48C 213 18 213 78 252 48C 291 18 291 78 330 48C 369 18 369 78 408 48L 408 145 L -60 145 z" style="fill:rgb(149,214,255)"/>
<path d="M -57 48C -18 18 -18 78 21 48C 60 18 60 78 99 48C 138 18 138 78 177 48C 216 18 216 78 255 48C 294 18 294 78 333 48C 372 18 372 78 411 48L 411 145 L -57 145 z" style="fill:rgb(72,185,255)"/>
</svg>
