<?xml version="1.0"?>
<!-- Generated by SVGo -->
<svg width="312" height="97"
     xmlns="http://www.w3.org/2000/svg" 
     xmlns:xlink="http://www.w3.org/1999/xlink">
<rect x="0" y="0" width="312" height="97" />
<path d="M 30 48C 69 18 69 78 108 48C 147 18 147 78 186 48C 225 18 225 78 264 48C 303 18 303 78 342 48C 381 18 381 78 420 48C 459 18 459 78 498 48L 498 145 L 30 145 z" style="fill:rgb(149,214,255)"/>
<path d="M -147 48C -108 18 -108 78 -69 48C -30 18 -30 78 9 48C 48 18 48 78 87 48C 126 18 126 78 165 48C 204 18 204 78 243 48C 282 18 282 78 321 48L 321 145 L -147 145 z" style="fill:rgb(72,185,255)"/>
</svg>
