<?xml version="1.0"?>
<!-- Generated by SVGo -->
<svg width="312" height="97"
     xmlns="http://www.w3.org/2000/svg" 
     xmlns:xlink="http://www.w3.org/1999/xlink">
<rect x="0" y="0" width="312" height="97" />
<path d="M -62 48C -23 33 -23 63 16 48C 55 33 55 63 94 48C 133 33 133 63 172 48C 211 33 211 63 250 48C 289 33 289 63 328 48C 367 33 367 63 406 48L 406 145 L -62 145 z" style="fill:rgb(149,214,255)"/>
<path d="M -55 48C -16 33 -16 63 23 48C 62 33 62 63 101 48C 140 33 140 63 179 48C 218 33 218 63 257 48C 296 33 296 63 335 48C 374 33 374 63 413 48L 413 145 L -55 145 z" style="fill:rgb(72,185,255)"/>
</svg>
