<?xml version="1.0"?>
<!-- Generated by SVGo -->
<svg width="312" height="97"
     xmlns="http://www.w3.org/2000/svg" 
     xmlns:xlink="http://www.w3.org/1999/xlink">
<rect x="0" y="0" width="312" height="97" />
<path d="M -46 48C -7 33 -7 63 32 48C 71 33 71 63 110 48C 149 33 149 63 188 48C 227 33 227 63 266 48C 305 33 305 63 344 48C 383 33 383 63 422 48L 422 145 L -46 145 z" style="fill:rgb(149,214,255)"/>
<path d="M -71 48C -32 33 -32 63 7 48C 46 33 46 63 85 48C 124 33 124 63 163 48C 202 33 202 63 241 48C 280 33 280 63 319 48C 358 33 358 63 397 48L 397 145 L -71 145 z" style="fill:rgb(72,185,255)"/>
</svg>
