<?xml version="1.0"?>
<!-- Generated by SVGo -->
<svg width="312" height="97"
     xmlns="http://www.w3.org/2000/svg" 
     xmlns:xlink="http://www.w3.org/1999/xlink">
<rect x="0" y="0" width="312" height="97" />
<path d="M -22 48C 17 33 17 63 56 48C 95 33 95 63 134 48C 173 33 173 63 212 48C 251 33 251 63 290 48C 329 33 329 63 368 48C 407 33 407 63 446 48L 446 145 L -22 145 z" style="fill:rgb(149,214,255)"/>
<path d="M -95 48C -56 33 -56 63 -17 48C 22 33 22 63 61 48C 100 33 100 63 139 48C 178 33 178 63 217 48C 256 33 256 63 295 48C 334 33 334 63 373 48L 373 145 L -95 145 z" style="fill:rgb(72,185,255)"/>
</svg>
