<?xml version="1.0"?>
<!-- Generated by SVGo -->
<svg width="312" height="97"
     xmlns="http://www.w3.org/2000/svg" 
     xmlns:xlink="http://www.w3.org/1999/xlink">
<rect x="0" y="0" width="312" height="97" />
<path d="M -78 48C -39 18 -39 78 0 48C 39 18 39 78 78 48C 117 18 117 78 156 48C 195 18 195 78 234 48C 273 18 273 78 312 48C 351 18 351 78 390 48L 390 145 L -78 145 z" style="fill:rgb(149,214,255)"/>
<path d="M -39 48C 0 18 0 78 39 48C 78 18 78 78 117 48C 156 18 156 78 195 48C 234 18 234 78 273 48C 312 18 312 78 351 48C 390 18 390 78 429 48L 429 145 L -39 145 z" style="fill:rgb(72,185,255)"/>
</svg>
