<?xml version="1.0"?>
<!-- Generated by SVGo -->
<svg width="312" height="97"
     xmlns="http://www.w3.org/2000/svg" 
     xmlns:xlink="http://www.w3.org/1999/xlink">
<rect x="0" y="0" width="312" height="97" />
<path d="M 24 48C 63 18 63 78 102 48C 141 18 141 78 180 48C 219 18 219 78 258 48C 297 18 297 78 336 48C 375 18 375 78 414 48C 453 18 453 78 492 48L 492 145 L 24 145 z" style="fill:rgb(149,214,255)"/>
<path d="M -141 48C -102 18 -102 78 -63 48C -24 18 -24 78 15 48C 54 18 54 78 93 48C 132 18 132 78 171 48C 210 18 210 78 249 48C 288 18 288 78 327 48L 327 145 L -141 145 z" style="fill:rgb(72,185,255)"/>
</svg>
