<?xml version="1.0"?>
<!-- Generated by SVGo -->
<svg width="312" height="97"
     xmlns="http://www.w3.org/2000/svg" 
     xmlns:xlink="http://www.w3.org/1999/xlink">
<rect x="0" y="0" width="312" height="97" />
<path d="M -30 48C 9 18 9 78 48 48C 87 18 87 78 126 48C 165 18 165 78 204 48C 243 18 243 78 282 48C 321 18 321 78 360 48C 399 18 399 78 438 48L 438 145 L -30 145 z" style="fill:rgb(149,214,255)"/>
<path d="M -87 48C -48 18 -48 78 -9 48C 30 18 30 78 69 48C 108 18 108 78 147 48C 186 18 186 78 225 48C 264 18 264 78 303 48C 342 18 342 78 381 48L 381 145 L -87 145 z" style="fill:rgb(72,185,255)"/>
</svg>
