<?xml version="1.0"?>
<!-- Generated by SVGo -->
<svg width="312" height="97"
     xmlns="http://www.w3.org/2000/svg" 
     xmlns:xlink="http://www.w3.org/1999/xlink">
<rect x="0" y="0" width="312" height="97" />
<path d="M -6 92C 33 77 33 107 72 92C 111 77 111 107 150 92C 189 77 189 107 228 92C 267 77 267 107 306 92C 345 77 345 107 384 92C 423 77 423 107 462 92L 462 189 L -6 189 z" style="fill:rgb(149,214,255)"/>
<path d="M -111 92C -72 77 -72 107 -33 92C 6 77 6 107 45 92C 84 77 84 107 123 92C 162 77 162 107 201 92C 240 77 240 107 279 92C 318 77 318 107 357 92L 357 189 L -111 189 z" style="fill:rgb(72,185,255)"/>
</svg>
