<?xml version="1.0"?>
<!-- Generated by SVGo -->
<svg width="312" height="97"
     xmlns="http://www.w3.org/2000/svg" 
     xmlns:xlink="http://www.w3.org/1999/xlink">
<rect x="0" y="0" width="312" height="97" />
<path d="M -38 73C 1 58 1 88 40 73C 79 58 79 88 118 73C 157 58 157 88 196 73C 235 58 235 88 274 73C 313 58 313 88 352 73C 391 58 391 88 430 73L 430 170 L -38 170 z" style="fill:rgb(149,214,255)"/>
<path d="M -79 73C -40 58 -40 88 -1 73C 38 58 38 88 77 73C 116 58 116 88 155 73C 194 58 194 88 233 73C 272 58 272 88 311 73C 350 58 350 88 389 73L 389 170 L -79 170 z" style="fill:rgb(72,185,255)"/>
</svg>
