<?xml version="1.0"?>
<!-- Generated by SVGo -->
<svg width="312" height="97"
     xmlns="http://www.w3.org/2000/svg" 
     xmlns:xlink="http://www.w3.org/1999/xlink">
<rect x="0" y="0" width="312" height="97" />
<path d="M -30 78C 9 63 9 93 48 78C 87 63 87 93 126 78C 165 63 165 93 204 78C 243 63 243 93 282 78C 321 63 321 93 360 78C 399 63 399 93 438 78L 438 175 L -30 175 z" style="fill:rgb(149,214,255)"/>
<path d="M -87 78C -48 63 -48 93 -9 78C 30 63 30 93 69 78C 108 63 108 93 147 78C 186 63 186 93 225 78C 264 63 264 93 303 78C 342 63 342 93 381 78L 381 175 L -87 175 z" style="fill:rgb(72,185,255)"/>
</svg>
