<?xml version="1.0"?>
<!-- Generated by SVGo -->
<svg width="312" height="97"
     xmlns="http://www.w3.org/2000/svg" 
     xmlns:xlink="http://www.w3.org/1999/xlink">
<rect x="0" y="0" width="312" height="97" />
<path d="M -70 53C -31 38 -31 68 8 53C 47 38 47 68 86 53C 125 38 125 68 164 53C 203 38 203 68 242 53C 281 38 281 68 320 53C 359 38 359 68 398 53L 398 150 L -70 150 z" style="fill:rgb(149,214,255)"/>
<path d="M -47 53C -8 38 -8 68 31 53C 70 38 70 68 109 53C 148 38 148 68 187 53C 226 38 226 68 265 53C 304 38 304 68 343 53C 382 38 382 68 421 53L 421 150 L -47 150 z" style="fill:rgb(72,185,255)"/>
</svg>
