<?xml version="1.0"?>
<!-- Generated by SVGo -->
<svg width="312" height="97"
     xmlns="http://www.w3.org/2000/svg" 
     xmlns:xlink="http://www.w3.org/1999/xlink">
<rect x="0" y="0" width="312" height="97" />
<path d="M -22 83C 17 68 17 98 56 83C 95 68 95 98 134 83C 173 68 173 98 212 83C 251 68 251 98 290 83C 329 68 329 98 368 83C 407 68 407 98 446 83L 446 180 L -22 180 z" style="fill:rgb(149,214,255)"/>
<path d="M -95 83C -56 68 -56 98 -17 83C 22 68 22 98 61 83C 100 68 100 98 139 83C 178 68 178 98 217 83C 256 68 256 98 295 83C 334 68 334 98 373 83L 373 180 L -95 180 z" style="fill:rgb(72,185,255)"/>
</svg>
