<?xml version="1.0"?>
<!-- Generated by SVGo -->
<svg width="312" height="97"
     xmlns="http://www.w3.org/2000/svg" 
     xmlns:xlink="http://www.w3.org/1999/xlink">
<rect x="0" y="0" width="312" height="97" />
<path d="M -78 48C -39 33 -39 63 0 48C 39 33 39 63 78 48C 117 33 117 63 156 48C 195 33 195 63 234 48C 273 33 273 63 312 48C 351 33 351 63 390 48L 390 145 L -78 145 z" style="fill:rgb(149,214,255)"/>
<path d="M -39 48C 0 33 0 63 39 48C 78 33 78 63 117 48C 156 33 156 63 195 48C 234 33 234 63 273 48C 312 33 312 63 351 48C 390 33 390 63 429 48L 429 145 L -39 145 z" style="fill:rgb(72,185,255)"/>
</svg>
