<?xml version="1.0"?>
<!-- Generated by SVGo -->
<svg width="312" height="97"
     xmlns="http://www.w3.org/2000/svg" 
     xmlns:xlink="http://www.w3.org/1999/xlink">
<rect x="0" y="0" width="312" height="97" />
<path d="M -54 63C -15 48 -15 78 24 63C 63 48 63 78 102 63C 141 48 141 78 180 63C 219 48 219 78 258 63C 297 48 297 78 336 63C 375 48 375 78 414 63L 414 160 L -54 160 z" style="fill:rgb(149,214,255)"/>
<path d="M -63 63C -24 48 -24 78 15 63C 54 48 54 78 93 63C 132 48 132 78 171 63C 210 48 210 78 249 63C 288 48 288 78 327 63C 366 48 366 78 405 63L 405 160 L -63 160 z" style="fill:rgb(72,185,255)"/>
</svg>
