<?xml version="1.0"?>
<!-- Generated by SVGo -->
<svg width="312" height="97"
     xmlns="http://www.w3.org/2000/svg" 
     xmlns:xlink="http://www.w3.org/1999/xlink">
<rect x="0" y="0" width="312" height="97" />
<path d="M -62 58C -23 43 -23 73 16 58C 55 43 55 73 94 58C 133 43 133 73 172 58C 211 43 211 73 250 58C 289 43 289 73 328 58C 367 43 367 73 406 58L 406 155 L -62 155 z" style="fill:rgb(149,214,255)"/>
<path d="M -55 58C -16 43 -16 73 23 58C 62 43 62 73 101 58C 140 43 140 73 179 58C 218 43 218 73 257 58C 296 43 296 73 335 58C 374 43 374 73 413 58L 413 155 L -55 155 z" style="fill:rgb(72,185,255)"/>
</svg>
