<?xml version="1.0"?>
<!-- Generated by SVGo -->
<svg width="312" height="97"
     xmlns="http://www.w3.org/2000/svg" 
     xmlns:xlink="http://www.w3.org/1999/xlink">
<rect x="0" y="0" width="312" height="97" />
<path d="M -14 88C 25 73 25 103 64 88C 103 73 103 103 142 88C 181 73 181 103 220 88C 259 73 259 103 298 88C 337 73 337 103 376 88C 415 73 415 103 454 88L 454 185 L -14 185 z" style="fill:rgb(149,214,255)"/>
<path d="M -103 88C -64 73 -64 103 -25 88C 14 73 14 103 53 88C 92 73 92 103 131 88C 170 73 170 103 209 88C 248 73 248 103 287 88C 326 73 326 103 365 88L 365 185 L -103 185 z" style="fill:rgb(72,185,255)"/>
</svg>
