<?xml version="1.0"?>
<!-- Generated by SVGo -->
<svg width="312" height="97"
     xmlns="http://www.w3.org/2000/svg" 
     xmlns:xlink="http://www.w3.org/1999/xlink">
<rect x="0" y="0" width="312" height="97" />
<path d="M -46 68C -7 53 -7 83 32 68C 71 53 71 83 110 68C 149 53 149 83 188 68C 227 53 227 83 266 68C 305 53 305 83 344 68C 383 53 383 83 422 68L 422 165 L -46 165 z" style="fill:rgb(149,214,255)"/>
<path d="M -71 68C -32 53 -32 83 7 68C 46 53 46 83 85 68C 124 53 124 83 163 68C 202 53 202 83 241 68C 280 53 280 83 319 68C 358 53 358 83 397 68L 397 165 L -71 165 z" style="fill:rgb(72,185,255)"/>
</svg>
