<?xml version="1.0"?>
<!-- Generated by SVGo -->
<svg width="312" height="97"
     xmlns="http://www.w3.org/2000/svg" 
     xmlns:xlink="http://www.w3.org/1999/xlink">
<rect x="0" y="0" width="312" height="97" />
<path d="M -62 10C -23 -5 -23 25 16 10C 55 -5 55 25 94 10C 133 -5 133 25 172 10C 211 -5 211 25 250 10C 289 -5 289 25 328 10C 367 -5 367 25 406 10L 406 107 L -62 107 z" style="fill:rgb(149,214,255)"/>
<path d="M -55 10C -16 -5 -16 25 23 10C 62 -5 62 25 101 10C 140 -5 140 25 179 10C 218 -5 218 25 257 10C 296 -5 296 25 335 10C 374 -5 374 25 413 10L 413 107 L -55 107 z" style="fill:rgb(72,185,255)"/>
</svg>
