<?xml version="1.0"?>
<!-- Generated by SVGo -->
<svg width="312" height="97"
     xmlns="http://www.w3.org/2000/svg" 
     xmlns:xlink="http://www.w3.org/1999/xlink">
<rect x="0" y="0" width="312" height="97" />
<path d="M -14 40C 25 25 25 55 64 40C 103 25 103 55 142 40C 181 25 181 55 220 40C 259 25 259 55 298 40C 337 25 337 55 376 40C 415 25 415 55 454 40L 454 137 L -14 137 z" style="fill:rgb(149,214,255)"/>
<path d="M -103 40C -64 25 -64 55 -25 40C 14 25 14 55 53 40C 92 25 92 55 131 40C 170 25 170 55 209 40C 248 25 248 55 287 40C 326 25 326 55 365 40L 365 137 L -103 137 z" style="fill:rgb(72,185,255)"/>
</svg>
