<?xml version="1.0"?>
<!-- Generated by SVGo -->
<svg width="312" height="97"
     xmlns="http://www.w3.org/2000/svg" 
     xmlns:xlink="http://www.w3.org/1999/xlink">
<rect x="0" y="0" width="312" height="97" />
<path d="M -70 5C -31 -10 -31 20 8 5C 47 -10 47 20 86 5C 125 -10 125 20 164 5C 203 -10 203 20 242 5C 281 -10 281 20 320 5C 359 -10 359 20 398 5L 398 102 L -70 102 z" style="fill:rgb(149,214,255)"/>
<path d="M -47 5C -8 -10 -8 20 31 5C 70 -10 70 20 109 5C 148 -10 148 20 187 5C 226 -10 226 20 265 5C 304 -10 304 20 343 5C 382 -10 382 20 421 5L 421 102 L -47 102 z" style="fill:rgb(72,185,255)"/>
</svg>
