<?xml version="1.0"?>
<!-- Generated by SVGo -->
<svg width="312" height="97"
     xmlns="http://www.w3.org/2000/svg" 
     xmlns:xlink="http://www.w3.org/1999/xlink">
<rect x="0" y="0" width="312" height="97" />
<path d="M -38 25C 1 10 1 40 40 25C 79 10 79 40 118 25C 157 10 157 40 196 25C 235 10 235 40 274 25C 313 10 313 40 352 25C 391 10 391 40 430 25L 430 122 L -38 122 z" style="fill:rgb(149,214,255)"/>
<path d="M -79 25C -40 10 -40 40 -1 25C 38 10 38 40 77 25C 116 10 116 40 155 25C 194 10 194 40 233 25C 272 10 272 40 311 25C 350 10 350 40 389 25L 389 122 L -79 122 z" style="fill:rgb(72,185,255)"/>
</svg>
