<?xml version="1.0"?>
<!-- Generated by SVGo -->
<svg width="312" height="97"
     xmlns="http://www.w3.org/2000/svg" 
     xmlns:xlink="http://www.w3.org/1999/xlink">
<rect x="0" y="0" width="312" height="97" />
<path d="M -78 0C -39 -15 -39 15 0 0C 39 -15 39 15 78 0C 117 -15 117 15 156 0C 195 -15 195 15 234 0C 273 -15 273 15 312 0C 351 -15 351 15 390 0L 390 97 L -78 97 z" style="fill:rgb(149,214,255)"/>
<path d="M -39 0C 0 -15 0 15 39 0C 78 -15 78 15 117 0C 156 -15 156 15 195 0C 234 -15 234 15 273 0C 312 -15 312 15 351 0C 390 -15 390 15 429 0L 429 97 L -39 97 z" style="fill:rgb(72,185,255)"/>
</svg>
