<?xml version="1.0"?>
<!-- Generated by SVGo -->
<svg width="312" height="97"
     xmlns="http://www.w3.org/2000/svg" 
     xmlns:xlink="http://www.w3.org/1999/xlink">
<rect x="0" y="0" width="312" height="97" />
<path d="M -22 35C 17 20 17 50 56 35C 95 20 95 50 134 35C 173 20 173 50 212 35C 251 20 251 50 290 35C 329 20 329 50 368 35C 407 20 407 50 446 35L 446 132 L -22 132 z" style="fill:rgb(149,214,255)"/>
<path d="M -95 35C -56 20 -56 50 -17 35C 22 20 22 50 61 35C 100 20 100 50 139 35C 178 20 178 50 217 35C 256 20 256 50 295 35C 334 20 334 50 373 35L 373 132 L -95 132 z" style="fill:rgb(72,185,255)"/>
</svg>
