<?xml version="1.0"?>
<!-- Generated by SVGo -->
<svg width="312" height="97"
     xmlns="http://www.w3.org/2000/svg" 
     xmlns:xlink="http://www.w3.org/1999/xlink">
<rect x="0" y="0" width="312" height="97" />
<path d="M -6 44C 33 29 33 59 72 44C 111 29 111 59 150 44C 189 29 189 59 228 44C 267 29 267 59 306 44C 345 29 345 59 384 44C 423 29 423 59 462 44L 462 141 L -6 141 z" style="fill:rgb(149,214,255)"/>
<path d="M -111 44C -72 29 -72 59 -33 44C 6 29 6 59 45 44C 84 29 84 59 123 44C 162 29 162 59 201 44C 240 29 240 59 279 44C 318 29 318 59 357 44L 357 141 L -111 141 z" style="fill:rgb(72,185,255)"/>
</svg>
