<?xml version="1.0"?>
<!-- Generated by SVGo -->
<svg width="312" height="97"
     xmlns="http://www.w3.org/2000/svg" 
     xmlns:xlink="http://www.w3.org/1999/xlink">
<rect x="0" y="0" width="312" height="97" />
<path d="M -30 30C 9 15 9 45 48 30C 87 15 87 45 126 30C 165 15 165 45 204 30C 243 15 243 45 282 30C 321 15 321 45 360 30C 399 15 399 45 438 30L 438 127 L -30 127 z" style="fill:rgb(149,214,255)"/>
<path d="M -87 30C -48 15 -48 45 -9 30C 30 15 30 45 69 30C 108 15 108 45 147 30C 186 15 186 45 225 30C 264 15 264 45 303 30C 342 15 342 45 381 30L 381 127 L -87 127 z" style="fill:rgb(72,185,255)"/>
</svg>
