<?xml version="1.0"?>
<!-- Generated by SVGo -->
<svg width="312" height="97"
     xmlns="http://www.w3.org/2000/svg" 
     xmlns:xlink="http://www.w3.org/1999/xlink">
<rect x="0" y="0" width="312" height="97" />
<path d="M -46 20C -7 5 -7 35 32 20C 71 5 71 35 110 20C 149 5 149 35 188 20C 227 5 227 35 266 20C 305 5 305 35 344 20C 383 5 383 35 422 20L 422 117 L -46 117 z" style="fill:rgb(149,214,255)"/>
<path d="M -71 20C -32 5 -32 35 7 20C 46 5 46 35 85 20C 124 5 124 35 163 20C 202 5 202 35 241 20C 280 5 280 35 319 20C 358 5 358 35 397 20L 397 117 L -71 117 z" style="fill:rgb(72,185,255)"/>
</svg>
