<?xml version="1.0"?>
<!-- Generated by SVGo -->
<svg width="312" height="97"
     xmlns="http://www.w3.org/2000/svg" 
     xmlns:xlink="http://www.w3.org/1999/xlink">
<rect x="0" y="0" width="312" height="97" />
<path d="M -54 15C -15 0 -15 30 24 15C 63 0 63 30 102 15C 141 0 141 30 180 15C 219 0 219 30 258 15C 297 0 297 30 336 15C 375 0 375 30 414 15L 414 112 L -54 112 z" style="fill:rgb(149,214,255)"/>
<path d="M -63 15C -24 0 -24 30 15 15C 54 0 54 30 93 15C 132 0 132 30 171 15C 210 0 210 30 249 15C 288 0 288 30 327 15C 366 0 366 30 405 15L 405 112 L -63 112 z" style="fill:rgb(72,185,255)"/>
</svg>
