<?xml version="1.0"?>
<!-- Generated by SVGo -->
<svg width="312" height="97"
     xmlns="http://www.w3.org/2000/svg" 
     xmlns:xlink="http://www.w3.org/1999/xlink">
<rect x="0" y="0" width="312" height="97" />
<path d="M -33 64C 6 49 6 79 45 64C 84 49 84 79 123 64C 162 49 162 79 201 64C 240 49 240 79 279 64C 318 49 318 79 357 64C 396 49 396 79 435 64L 435 161 L -33 161 z" style="fill:rgb(149,214,255)"/>
<path d="M -84 64C -45 49 -45 79 -6 64C 33 49 33 79 72 64C 111 49 111 79 150 64C 189 49 189 79 228 64C 267 49 267 79 306 64C 345 49 345 79 384 64L 384 161 L -84 161 z" style="fill:rgb(72,185,255)"/>
</svg>
