<?xml version="1.0"?>
<!-- Generated by SVGo -->
<svg width="312" height="97"
     xmlns="http://www.w3.org/2000/svg" 
     xmlns:xlink="http://www.w3.org/1999/xlink">
<rect x="0" y="0" width="312" height="97" />
<path d="M -70 15C -31 0 -31 30 8 15C 47 0 47 30 86 15C 125 0 125 30 164 15C 203 0 203 30 242 15C 281 0 281 30 320 15C 359 0 359 30 398 15L 398 112 L -70 112 z" style="fill:rgb(149,214,255)"/>
<path d="M -47 15C -8 0 -8 30 31 15C 70 0 70 30 109 15C 148 0 148 30 187 15C 226 0 226 30 265 15C 304 0 304 30 343 15C 382 0 382 30 421 15L 421 112 L -47 112 z" style="fill:rgb(72,185,255)"/>
</svg>
