<?xml version="1.0"?>
<!-- Generated by SVGo -->
<svg width="312" height="97"
     xmlns="http://www.w3.org/2000/svg" 
     xmlns:xlink="http://www.w3.org/1999/xlink">
<rect x="0" y="0" width="312" height="97" />
<path d="M -28 69C 11 54 11 84 50 69C 89 54 89 84 128 69C 167 54 167 84 206 69C 245 54 245 84 284 69C 323 54 323 84 362 69C 401 54 401 84 440 69L 440 166 L -28 166 z" style="fill:rgb(149,214,255)"/>
<path d="M -89 69C -50 54 -50 84 -11 69C 28 54 28 84 67 69C 106 54 106 84 145 69C 184 54 184 84 223 69C 262 54 262 84 301 69C 340 54 340 84 379 69L 379 166 L -89 166 z" style="fill:rgb(72,185,255)"/>
</svg>
