<?xml version="1.0"?>
<!-- Generated by SVGo -->
<svg width="312" height="97"
     xmlns="http://www.w3.org/2000/svg" 
     xmlns:xlink="http://www.w3.org/1999/xlink">
<rect x="0" y="0" width="312" height="97" />
<path d="M -6 15C 33 0 33 30 72 15C 111 0 111 30 150 15C 189 0 189 30 228 15C 267 0 267 30 306 15C 345 0 345 30 384 15C 423 0 423 30 462 15L 462 112 L -6 112 z" style="fill:rgb(149,214,255)"/>
<path d="M -111 15C -72 0 -72 30 -33 15C 6 0 6 30 45 15C 84 0 84 30 123 15C 162 0 162 30 201 15C 240 0 240 30 279 15C 318 0 318 30 357 15L 357 112 L -111 112 z" style="fill:rgb(72,185,255)"/>
</svg>
