<?xml version="1.0"?>
<!-- Generated by SVGo -->
<svg width="312" height="97"
     xmlns="http://www.w3.org/2000/svg" 
     xmlns:xlink="http://www.w3.org/1999/xlink">
<rect x="0" y="0" width="312" height="97" />
<path d="M -38 15C 1 0 1 30 40 15C 79 0 79 30 118 15C 157 0 157 30 196 15C 235 0 235 30 274 15C 313 0 313 30 352 15C 391 0 391 30 430 15L 430 112 L -38 112 z" style="fill:rgb(149,214,255)"/>
<path d="M -79 15C -40 0 -40 30 -1 15C 38 0 38 30 77 15C 116 0 116 30 155 15C 194 0 194 30 233 15C 272 0 272 30 311 15C 350 0 350 30 389 15L 389 112 L -79 112 z" style="fill:rgb(72,185,255)"/>
</svg>
