<?xml version="1.0"?>
<!-- Generated by SVGo -->
<svg width="312" height="97"
     xmlns="http://www.w3.org/2000/svg" 
     xmlns:xlink="http://www.w3.org/1999/xlink">
<rect x="0" y="0" width="312" height="97" />
<path d="M -52 5C -13 -10 -13 20 26 5C 65 -10 65 20 104 5C 143 -10 143 20 182 5C 221 -10 221 20 260 5C 299 -10 299 20 338 5C 377 -10 377 20 416 5L 416 102 L -52 102 z" style="fill:rgb(149,214,255)"/>
<path d="M -65 5C -26 -10 -26 20 13 5C 52 -10 52 20 91 5C 130 -10 130 20 169 5C 208 -10 208 20 247 5C 286 -10 286 20 325 5C 364 -10 364 20 403 5L 403 102 L -65 102 z" style="fill:rgb(72,185,255)"/>
</svg>
