<?xml version="1.0"?>
<!-- Generated by SVGo -->
<svg width="312" height="97"
     xmlns="http://www.w3.org/2000/svg" 
     xmlns:xlink="http://www.w3.org/1999/xlink">
<rect x="0" y="0" width="312" height="97" />
<path d="M -63 34C -24 19 -24 49 15 34C 54 19 54 49 93 34C 132 19 132 49 171 34C 210 19 210 49 249 34C 288 19 288 49 327 34C 366 19 366 49 405 34L 405 131 L -63 131 z" style="fill:rgb(149,214,255)"/>
<path d="M -54 34C -15 19 -15 49 24 34C 63 19 63 49 102 34C 141 19 141 49 180 34C 219 19 219 49 258 34C 297 19 297 49 336 34C 375 19 375 49 414 34L 414 131 L -54 131 z" style="fill:rgb(72,185,255)"/>
</svg>
