<?xml version="1.0"?>
<!-- Generated by SVGo -->
<svg width="312" height="97"
     xmlns="http://www.w3.org/2000/svg" 
     xmlns:xlink="http://www.w3.org/1999/xlink">
<rect x="0" y="0" width="312" height="97" />
<path d="M -18 79C 21 64 21 94 60 79C 99 64 99 94 138 79C 177 64 177 94 216 79C 255 64 255 94 294 79C 333 64 333 94 372 79C 411 64 411 94 450 79L 450 176 L -18 176 z" style="fill:rgb(149,214,255)"/>
<path d="M -99 79C -60 64 -60 94 -21 79C 18 64 18 94 57 79C 96 64 96 94 135 79C 174 64 174 94 213 79C 252 64 252 94 291 79C 330 64 330 94 369 79L 369 176 L -99 176 z" style="fill:rgb(72,185,255)"/>
</svg>
