<?xml version="1.0"?>
<!-- Generated by SVGo -->
<svg width="312" height="97"
     xmlns="http://www.w3.org/2000/svg" 
     xmlns:xlink="http://www.w3.org/1999/xlink">
<rect x="0" y="0" width="312" height="97" />
<path d="M -78 19C -39 4 -39 34 0 19C 39 4 39 34 78 19C 117 4 117 34 156 19C 195 4 195 34 234 19C 273 4 273 34 312 19C 351 4 351 34 390 19L 390 116 L -78 116 z" style="fill:rgb(149,214,255)"/>
<path d="M -39 19C 0 4 0 34 39 19C 78 4 78 34 117 19C 156 4 156 34 195 19C 234 4 234 34 273 19C 312 4 312 34 351 19C 390 4 390 34 429 19L 429 116 L -39 116 z" style="fill:rgb(72,185,255)"/>
</svg>
