<?xml version="1.0"?>
<!-- Generated by SVGo -->
<svg width="312" height="97"
     xmlns="http://www.w3.org/2000/svg" 
     xmlns:xlink="http://www.w3.org/1999/xlink">
<rect x="0" y="0" width="312" height="97" />
<path d="M -13 84C 26 69 26 99 65 84C 104 69 104 99 143 84C 182 69 182 99 221 84C 260 69 260 99 299 84C 338 69 338 99 377 84C 416 69 416 99 455 84L 455 181 L -13 181 z" style="fill:rgb(149,214,255)"/>
<path d="M -104 84C -65 69 -65 99 -26 84C 13 69 13 99 52 84C 91 69 91 99 130 84C 169 69 169 99 208 84C 247 69 247 99 286 84C 325 69 325 99 364 84L 364 181 L -104 181 z" style="fill:rgb(72,185,255)"/>
</svg>
