<?xml version="1.0"?>
<!-- Generated by SVGo -->
<svg width="312" height="97"
     xmlns="http://www.w3.org/2000/svg" 
     xmlns:xlink="http://www.w3.org/1999/xlink">
<rect x="0" y="0" width="312" height="97" />
<path d="M -22 15C 17 0 17 30 56 15C 95 0 95 30 134 15C 173 0 173 30 212 15C 251 0 251 30 290 15C 329 0 329 30 368 15C 407 0 407 30 446 15L 446 112 L -22 112 z" style="fill:rgb(149,214,255)"/>
<path d="M -95 15C -56 0 -56 30 -17 15C 22 0 22 30 61 15C 100 0 100 30 139 15C 178 0 178 30 217 15C 256 0 256 30 295 15C 334 0 334 30 373 15L 373 112 L -95 112 z" style="fill:rgb(72,185,255)"/>
</svg>
