<?xml version="1.0"?>
<!-- Generated by SVGo -->
<svg width="312" height="97"
     xmlns="http://www.w3.org/2000/svg" 
     xmlns:xlink="http://www.w3.org/1999/xlink">
<rect x="0" y="0" width="312" height="97" />
<path d="M 7 101C 46 86 46 116 85 101C 124 86 124 116 163 101C 202 86 202 116 241 101C 280 86 280 116 319 101C 358 86 358 116 397 101C 436 86 436 116 475 101L 475 198 L 7 198 z" style="fill:rgb(149,214,255)"/>
<path d="M -124 101C -85 86 -85 116 -46 101C -7 86 -7 116 32 101C 71 86 71 116 110 101C 149 86 149 116 188 101C 227 86 227 116 266 101C 305 86 305 116 344 101L 344 198 L -124 198 z" style="fill:rgb(72,185,255)"/>
</svg>
