<?xml version="1.0"?>
<!-- Generated by SVGo -->
<svg width="312" height="97"
     xmlns="http://www.w3.org/2000/svg" 
     xmlns:xlink="http://www.w3.org/1999/xlink">
<rect x="0" y="0" width="312" height="97" />
<path d="M -53 44C -14 29 -14 59 25 44C 64 29 64 59 103 44C 142 29 142 59 181 44C 220 29 220 59 259 44C 298 29 298 59 337 44C 376 29 376 59 415 44L 415 141 L -53 141 z" style="fill:rgb(149,214,255)"/>
<path d="M -64 44C -25 29 -25 59 14 44C 53 29 53 59 92 44C 131 29 131 59 170 44C 209 29 209 59 248 44C 287 29 287 59 326 44C 365 29 365 59 404 44L 404 141 L -64 141 z" style="fill:rgb(72,185,255)"/>
</svg>
