<?xml version="1.0"?>
<!-- Generated by SVGo -->
<svg width="312" height="97"
     xmlns="http://www.w3.org/2000/svg" 
     xmlns:xlink="http://www.w3.org/1999/xlink">
<rect x="0" y="0" width="312" height="97" />
<path d="M -8 89C 31 74 31 104 70 89C 109 74 109 104 148 89C 187 74 187 104 226 89C 265 74 265 104 304 89C 343 74 343 104 382 89C 421 74 421 104 460 89L 460 186 L -8 186 z" style="fill:rgb(149,214,255)"/>
<path d="M -109 89C -70 74 -70 104 -31 89C 8 74 8 104 47 89C 86 74 86 104 125 89C 164 74 164 104 203 89C 242 74 242 104 281 89C 320 74 320 104 359 89L 359 186 L -109 186 z" style="fill:rgb(72,185,255)"/>
</svg>
