<?xml version="1.0"?>
<!-- Generated by SVGo -->
<svg width="312" height="97"
     xmlns="http://www.w3.org/2000/svg" 
     xmlns:xlink="http://www.w3.org/1999/xlink">
<rect x="0" y="0" width="312" height="97" />
<path d="M -26 10C 13 -5 13 25 52 10C 91 -5 91 25 130 10C 169 -5 169 25 208 10C 247 -5 247 25 286 10C 325 -5 325 25 364 10C 403 -5 403 25 442 10L 442 107 L -26 107 z" style="fill:rgb(149,214,255)"/>
<path d="M -91 10C -52 -5 -52 25 -13 10C 26 -5 26 25 65 10C 104 -5 104 25 143 10C 182 -5 182 25 221 10C 260 -5 260 25 299 10C 338 -5 338 25 377 10L 377 107 L -91 107 z" style="fill:rgb(72,185,255)"/>
</svg>
