<?xml version="1.0"?>
<!-- Generated by SVGo -->
<svg width="312" height="97"
     xmlns="http://www.w3.org/2000/svg" 
     xmlns:xlink="http://www.w3.org/1999/xlink">
<rect x="0" y="0" width="312" height="97" />
<path d="M -48 49C -9 34 -9 64 30 49C 69 34 69 64 108 49C 147 34 147 64 186 49C 225 34 225 64 264 49C 303 34 303 64 342 49C 381 34 381 64 420 49L 420 146 L -48 146 z" style="fill:rgb(149,214,255)"/>
<path d="M -69 49C -30 34 -30 64 9 49C 48 34 48 64 87 49C 126 34 126 64 165 49C 204 34 204 64 243 49C 282 34 282 64 321 49C 360 34 360 64 399 49L 399 146 L -69 146 z" style="fill:rgb(72,185,255)"/>
</svg>
