<?xml version="1.0"?>
<!-- Generated by SVGo -->
<svg width="312" height="97"
     xmlns="http://www.w3.org/2000/svg" 
     xmlns:xlink="http://www.w3.org/1999/xlink">
<rect x="0" y="0" width="312" height="97" />
<path d="M -30 15C 9 0 9 30 48 15C 87 0 87 30 126 15C 165 0 165 30 204 15C 243 0 243 30 282 15C 321 0 321 30 360 15C 399 0 399 30 438 15L 438 112 L -30 112 z" style="fill:rgb(149,214,255)"/>
<path d="M -87 15C -48 0 -48 30 -9 15C 30 0 30 30 69 15C 108 0 108 30 147 15C 186 0 186 30 225 15C 264 0 264 30 303 15C 342 0 342 30 381 15L 381 112 L -87 112 z" style="fill:rgb(72,185,255)"/>
</svg>
