<?xml version="1.0"?>
<!-- Generated by SVGo -->
<svg width="312" height="97"
     xmlns="http://www.w3.org/2000/svg" 
     xmlns:xlink="http://www.w3.org/1999/xlink">
<rect x="0" y="0" width="312" height="97" />
<path d="M -14 15C 25 0 25 30 64 15C 103 0 103 30 142 15C 181 0 181 30 220 15C 259 0 259 30 298 15C 337 0 337 30 376 15C 415 0 415 30 454 15L 454 112 L -14 112 z" style="fill:rgb(149,214,255)"/>
<path d="M -103 15C -64 0 -64 30 -25 15C 14 0 14 30 53 15C 92 0 92 30 131 15C 170 0 170 30 209 15C 248 0 248 30 287 15C 326 0 326 30 365 15L 365 112 L -103 112 z" style="fill:rgb(72,185,255)"/>
</svg>
