<?xml version="1.0"?>
<!-- Generated by SVGo -->
<svg width="312" height="97"
     xmlns="http://www.w3.org/2000/svg" 
     xmlns:xlink="http://www.w3.org/1999/xlink">
<rect x="0" y="0" width="312" height="97" />
<path d="M -62 15C -23 0 -23 30 16 15C 55 0 55 30 94 15C 133 0 133 30 172 15C 211 0 211 30 250 15C 289 0 289 30 328 15C 367 0 367 30 406 15L 406 112 L -62 112 z" style="fill:rgb(149,214,255)"/>
<path d="M -55 15C -16 0 -16 30 23 15C 62 0 62 30 101 15C 140 0 140 30 179 15C 218 0 218 30 257 15C 296 0 296 30 335 15C 374 0 374 30 413 15L 413 112 L -55 112 z" style="fill:rgb(72,185,255)"/>
</svg>
