<?xml version="1.0"?>
<!-- Generated by SVGo -->
<svg width="312" height="97"
     xmlns="http://www.w3.org/2000/svg" 
     xmlns:xlink="http://www.w3.org/1999/xlink">
<rect x="0" y="0" width="312" height="97" />
<path d="M -3 93C 36 78 36 108 75 93C 114 78 114 108 153 93C 192 78 192 108 231 93C 270 78 270 108 309 93C 348 78 348 108 387 93C 426 78 426 108 465 93L 465 190 L -3 190 z" style="fill:rgb(149,214,255)"/>
<path d="M -114 93C -75 78 -75 108 -36 93C 3 78 3 108 42 93C 81 78 81 108 120 93C 159 78 159 108 198 93C 237 78 237 108 276 93C 315 78 315 108 354 93L 354 190 L -114 190 z" style="fill:rgb(72,185,255)"/>
</svg>
