<?xml version="1.0"?>
<!-- Generated by SVGo -->
<svg width="312" height="97"
     xmlns="http://www.w3.org/2000/svg" 
     xmlns:xlink="http://www.w3.org/1999/xlink">
<rect x="0" y="0" width="312" height="97" />
<path d="M -68 29C -29 14 -29 44 10 29C 49 14 49 44 88 29C 127 14 127 44 166 29C 205 14 205 44 244 29C 283 14 283 44 322 29C 361 14 361 44 400 29L 400 126 L -68 126 z" style="fill:rgb(149,214,255)"/>
<path d="M -49 29C -10 14 -10 44 29 29C 68 14 68 44 107 29C 146 14 146 44 185 29C 224 14 224 44 263 29C 302 14 302 44 341 29C 380 14 380 44 419 29L 419 126 L -49 126 z" style="fill:rgb(72,185,255)"/>
</svg>
