<?xml version="1.0"?>
<!-- Generated by SVGo -->
<svg width="312" height="97"
     xmlns="http://www.w3.org/2000/svg" 
     xmlns:xlink="http://www.w3.org/1999/xlink">
<rect x="0" y="0" width="312" height="97" />
<path d="M -46 15C -7 0 -7 30 32 15C 71 0 71 30 110 15C 149 0 149 30 188 15C 227 0 227 30 266 15C 305 0 305 30 344 15C 383 0 383 30 422 15L 422 112 L -46 112 z" style="fill:rgb(149,214,255)"/>
<path d="M -71 15C -32 0 -32 30 7 15C 46 0 46 30 85 15C 124 0 124 30 163 15C 202 0 202 30 241 15C 280 0 280 30 319 15C 358 0 358 30 397 15L 397 112 L -71 112 z" style="fill:rgb(72,185,255)"/>
</svg>
