<?xml version="1.0"?>
<!-- Generated by SVGo -->
<svg width="312" height="97"
     xmlns="http://www.w3.org/2000/svg" 
     xmlns:xlink="http://www.w3.org/1999/xlink">
<rect x="0" y="0" width="312" height="97" />
<path d="M 2 97C 41 82 41 112 80 97C 119 82 119 112 158 97C 197 82 197 112 236 97C 275 82 275 112 314 97C 353 82 353 112 392 97C 431 82 431 112 470 97L 470 194 L 2 194 z" style="fill:rgb(149,214,255)"/>
<path d="M -119 97C -80 82 -80 112 -41 97C -2 82 -2 112 37 97C 76 82 76 112 115 97C 154 82 154 112 193 97C 232 82 232 112 271 97C 310 82 310 112 349 97L 349 194 L -119 194 z" style="fill:rgb(72,185,255)"/>
</svg>
