<?xml version="1.0"?>
<!-- Generated by SVGo -->
<svg width="312" height="97"
     xmlns="http://www.w3.org/2000/svg" 
     xmlns:xlink="http://www.w3.org/1999/xlink">
<rect x="0" y="0" width="312" height="97" />
<path d="M -23 74C 16 59 16 89 55 74C 94 59 94 89 133 74C 172 59 172 89 211 74C 250 59 250 89 289 74C 328 59 328 89 367 74C 406 59 406 89 445 74L 445 171 L -23 171 z" style="fill:rgb(149,214,255)"/>
<path d="M -94 74C -55 59 -55 89 -16 74C 23 59 23 89 62 74C 101 59 101 89 140 74C 179 59 179 89 218 74C 257 59 257 89 296 74C 335 59 335 89 374 74L 374 171 L -94 171 z" style="fill:rgb(72,185,255)"/>
</svg>
