<?xml version="1.0"?>
<!-- Generated by SVGo -->
<svg width="312" height="97"
     xmlns="http://www.w3.org/2000/svg" 
     xmlns:xlink="http://www.w3.org/1999/xlink">
<rect x="0" y="0" width="312" height="97" />
<path d="M -78 15C -39 0 -39 30 0 15C 39 0 39 30 78 15C 117 0 117 30 156 15C 195 0 195 30 234 15C 273 0 273 30 312 15C 351 0 351 30 390 15L 390 112 L -78 112 z" style="fill:rgb(149,214,255)"/>
<path d="M -39 15C 0 0 0 30 39 15C 78 0 78 30 117 15C 156 0 156 30 195 15C 234 0 234 30 273 15C 312 0 312 30 351 15C 390 0 390 30 429 15L 429 112 L -39 112 z" style="fill:rgb(72,185,255)"/>
</svg>
