<?xml version="1.0"?>
<!-- Generated by SVGo -->
<svg width="312" height="97"
     xmlns="http://www.w3.org/2000/svg" 
     xmlns:xlink="http://www.w3.org/1999/xlink">
<rect x="0" y="0" width="312" height="97" />
<path d="M -38 59C 1 44 1 74 40 59C 79 44 79 74 118 59C 157 44 157 74 196 59C 235 44 235 74 274 59C 313 44 313 74 352 59C 391 44 391 74 430 59L 430 156 L -38 156 z" style="fill:rgb(149,214,255)"/>
<path d="M -79 59C -40 44 -40 74 -1 59C 38 44 38 74 77 59C 116 44 116 74 155 59C 194 44 194 74 233 59C 272 44 272 74 311 59C 350 44 350 74 389 59L 389 156 L -79 156 z" style="fill:rgb(72,185,255)"/>
</svg>
