<?xml version="1.0"?>
<!-- Generated by SVGo -->
<svg width="312" height="97"
     xmlns="http://www.w3.org/2000/svg" 
     xmlns:xlink="http://www.w3.org/1999/xlink">
<rect x="0" y="0" width="312" height="97" />
<path d="M -43 54C -4 39 -4 69 35 54C 74 39 74 69 113 54C 152 39 152 69 191 54C 230 39 230 69 269 54C 308 39 308 69 347 54C 386 39 386 69 425 54L 425 151 L -43 151 z" style="fill:rgb(149,214,255)"/>
<path d="M -74 54C -35 39 -35 69 4 54C 43 39 43 69 82 54C 121 39 121 69 160 54C 199 39 199 69 238 54C 277 39 277 69 316 54C 355 39 355 69 394 54L 394 151 L -74 151 z" style="fill:rgb(72,185,255)"/>
</svg>
