<?xml version="1.0"?>
<!-- Generated by SVGo -->
<svg width="312" height="97"
     xmlns="http://www.w3.org/2000/svg" 
     xmlns:xlink="http://www.w3.org/1999/xlink">
<rect x="0" y="0" width="312" height="97" />
<path d="M -58 39C -19 24 -19 54 20 39C 59 24 59 54 98 39C 137 24 137 54 176 39C 215 24 215 54 254 39C 293 24 293 54 332 39C 371 24 371 54 410 39L 410 136 L -58 136 z" style="fill:rgb(149,214,255)"/>
<path d="M -59 39C -20 24 -20 54 19 39C 58 24 58 54 97 39C 136 24 136 54 175 39C 214 24 214 54 253 39C 292 24 292 54 331 39C 370 24 370 54 409 39L 409 136 L -59 136 z" style="fill:rgb(72,185,255)"/>
</svg>
